<svg width="800" height="800" xmlns="http://www.w3.org/2000/svg">
 <g>
  <title>Layer 1</title>
  <g id="svg_26" stroke="null">
   <path fill="#fff" stroke-width="12" d="m321.78897,395.85008c-1.34109,-3.23364 -2.6055,-6.57231 -3.67673,-10.07616l0,0c-0.9582,-3.13413 -1.71261,-6.23253 -2.35909,-9.28234l0,0l-41.83566,-15.32839l-0.09061,-6.88755c-0.1268,-8.07753 0.3569,-16.10898 1.46255,-24.0281l0,0l0.95774,-6.86496l43.1472,-11.50041c2.26121,-6.66727 5.07956,-13.10438 8.43529,-19.29367l0,0l-21.40752,-37.91267l4.47123,-5.42717c5.24938,-6.36766 11.01049,-12.18916 16.97688,-17.61172l0,0l5.21636,-4.71966l39.84848,18.00294c6.12284,-3.75918 12.63888,-7.00116 19.45398,-9.73012l0,0l8.69758,-42.66043l6.93841,-1.39426c8.29571,-1.67834 16.46926,-2.519 24.43374,-2.9729l0,0l7.06841,-0.39225l18.28027,39.02809c7.20213,0.97996 14.23165,2.57667 21.03284,4.71669l0,0l34.6428,-27.61626l6.16727,3.25307c7.21827,3.83421 14.04072,8.21459 20.51211,12.98381l0,0l5.59661,4.13419l-11.96995,42.17405c4.62528,5.07663 8.8349,10.57825 12.57562,16.46838l0,0l44.62738,0.31754l2.52669,6.42473c1.35253,3.46293 2.83243,7.17689 4.09895,11.31947l0,0c1.26311,4.13146 2.10957,8.02666 2.92476,11.65404l0,0l1.49789,6.73907l-37.20065,25.48594c0.11762,6.72829 -0.31491,13.41652 -1.30781,20.00237l0,0l33.98092,28.66467l-2.32273,6.57571c-2.69038,7.57044 -5.90894,15.03256 -9.72944,22.22985l0,0l-3.28816,6.16408l-45.47667,-3.64414c-4.15285,5.09299 -8.71832,9.93613 -13.70816,14.40684l0,0l6.87439,43.90818l-6.07323,3.6458c-6.84131,4.10129 -14.08979,7.96767 -21.92695,11.20085l0,0l-6.53138,2.72409l-32.1477,-31.56987c-6.5555,1.38346 -13.14566,2.29539 -19.7262,2.66108l0,0l-23.67124,38.42767l-6.98957,-1.00001c-7.99883,-1.14084 -16.04744,-2.72002 -23.94295,-5.08926l0,0l-6.72561,-2.00391l-3.56207,-44.47141c-5.88824,-3.02792 -11.52777,-6.53204 -16.86078,-10.4896l0,0l-43.02609,14.89033l-4.64518,-5.16836c-5.33195,-5.95928 -10.2282,-12.33351 -14.63999,-19.10072l0,0l-3.78344,-5.78335l26.17921,-36.18386l0,0l-0.00001,0.00002l0.00001,-0.00004zm-0.78779,36.3984c1.44007,1.99025 2.93004,3.9242 4.46671,5.81923l0,0l40.63775,-14.04985l4.52835,3.74191c6.83117,5.5906 14.40797,10.26707 22.52523,13.99419l0,0l5.40998,2.47967l3.37599,42.07771c2.39719,0.56197 4.8288,1.07242 7.29379,1.52779l0,0l22.40402,-36.33681l5.98726,-0.00056c8.61416,-0.03181 17.48281,-1.26449 26.42806,-3.56234l0,0l5.81997,-1.50974l30.41054,29.87049c2.24353,-1.0943 4.45437,-2.23977 6.6549,-3.44778l0,0l-6.51774,-41.5868l4.64355,-3.76406c6.94551,-5.62825 13.06735,-12.13605 18.36212,-19.28955l0,0l3.53832,-4.74169l42.96222,3.44077c1.04554,-2.2395 2.03067,-4.50952 2.95514,-6.81402l0,0l-32.17736,-27.16133l1.17999,-5.80983c1.73658,-8.60209 2.32935,-17.51243 1.72087,-26.53333l0,0l-0.38277,-5.83836l35.21436,-24.12703c-0.30199,-1.20675 -0.62385,-2.37045 -0.96761,-3.49483l0,0c-0.35065,-1.14691 -0.73453,-2.29161 -1.16125,-3.46835l0,0l-42.40608,-0.30201l-2.90249,-5.15395c-4.50759,-7.98818 -10.08488,-15.21609 -16.45825,-21.58803l0,0l-4.17706,-4.1598l11.30986,-39.85636c-2.05166,-1.38237 -4.13891,-2.71724 -6.25339,-3.97408l0,0l-32.81074,26.16555l-5.62871,-2.06951c-8.78673,-3.22421 -17.9785,-5.32796 -27.40219,-6.13126l0,0l-5.97394,-0.50585l-17.2759,-36.89673c-2.49977,0.22922 -4.97435,0.51206 -7.44284,0.87053l0,0l-8.21932,40.32483l-5.7249,1.98301c-9.2355,3.2197 -17.74017,7.4824 -25.32666,12.661l0,0l-4.99042,3.39672l-37.68068,-17.03608c-1.7989,1.75099 -3.53045,3.53022 -5.19998,5.3479l0,0l20.21006,35.75432l-3.08713,5.11849c-4.82128,7.90734 -8.51839,16.38598 -11.03161,25.25029l0,0l-1.60294,5.71446l-40.90933,10.91005c-0.21307,2.43427 -0.36457,4.87827 -0.44555,7.33338l0,0l39.50578,14.46424l0.9963,5.75698c0.73378,4.35053 1.62534,8.53021 2.86451,12.58334l0,0c1.33277,4.3593 3.06844,8.63622 5.09519,12.93056l0,0l2.51579,5.34572l-24.85973,34.34682l0,0l-0.00001,0.00002l-0.00003,-0.00005zm86.70438,-14.40938l-6.81158,7.93164l-33.04527,-26.97772l15.35796,-17.85612l0,0c-2.4366,-4.04247 -4.48918,-8.44724 -5.95328,-13.23609l0,0c-10.13126,-33.13786 9.26721,-68.42922 43.29466,-78.83245l0,0c34.05795,-10.41256 69.86707,8.00014 79.99833,41.13801l0,0c10.11983,33.10046 -9.26881,68.39674 -43.32676,78.8093l0,0c-13.98395,4.27532 -28.33696,3.66404 -41.02484,-0.83858l0,0l-8.48923,9.86202m-10.22268,-21.81991l1.01407,0.84593l12.33391,-14.34197l7.47283,3.84227c9.78843,5.01763 21.46033,6.36296 32.92586,2.8576l0,0c22.91023,-7.04934 35.95101,-30.7816 29.18675,-53.07041l0,0c-6.87197,-22.31325 -30.92528,-34.68427 -53.88269,-27.70635l0,0c-22.88856,7.0386 -35.9289,30.7707 -29.15474,53.09344l0,0c1.52346,4.98301 4.04212,9.45788 7.28933,13.5423l0,0l5.18175,6.51158l-12.36708,14.42561l0,0l0.00001,0z" id="svg_7" stroke="#000"/>
   <path fill="#fff" stroke-width="12" d="m60.58999,630.6808l234.72355,-197.02199l21.89153,27.97226l-238.37248,194.58962l-18.24261,-25.53989l0.00001,0z" id="svg_11" stroke="#000"/>
   <path fill="#fff" stroke-width="12" d="m161.44215,200.91735l24.15633,0l7.46449,-23.22713l7.46449,23.22713l24.15632,0l-19.54284,14.355l7.46488,23.22713l-19.54285,-14.35539l-19.54285,14.35539l7.46488,-23.22713l-19.54285,-14.355z" id="svg_23" stroke="#000"/>
   <path fill="#fff" stroke-width="12" d="m540.8919,134.02718l24.15633,0l7.46449,-23.22713l7.4645,23.22713l24.15632,0l-19.54284,14.35499l7.46488,23.22713l-19.54285,-14.35538l-19.54285,14.35538l7.46488,-23.22713l-19.54285,-14.35499l-0.00001,0z" id="svg_12" stroke="#000"/>
   <path fill="#fff" stroke-width="12" d="m647.91616,237.51796l16.25904,0l5.02416,-14.86536l5.02417,14.86536l16.25903,0l-13.15381,9.1872l5.02443,14.86537l-13.15382,-9.18745l-13.15381,9.18745l5.02443,-14.86537l-13.15382,-9.1872z" id="svg_19" stroke="#000"/>
   <path fill="#fff" stroke-width="12" d="m477.65025,558.59082l16.25904,0l5.02417,-14.86536l5.02417,14.86536l16.25903,0l-13.15381,9.18719l5.02443,14.86536l-13.15382,-9.18745l-13.15382,9.18745l5.02443,-14.86536l-13.15382,-9.18719z" id="svg_15" stroke="#000"/>
   <path fill="#fff" stroke-width="5" d="m390.15183,609.19847l17.6527,0l5.45482,-17.65261l5.45482,17.65261l17.6527,0l-14.2813,10.90979l5.4551,17.6526l-14.28132,-10.91008l-14.28131,10.91008l5.4551,-17.6526l-14.28131,-10.90979z" id="svg_24" stroke="#000"/>
   <path fill="#fff" stroke-width="5" d="m668.65821,352.58342l17.6527,0l5.45482,-17.65261l5.45482,17.65261l17.6527,0l-14.28131,10.90979l5.4551,17.65261l-14.28131,-10.91008l-14.28131,10.91008l5.4551,-17.65261l-14.28131,-10.90979z" id="svg_17" stroke="#000"/>
   <path fill="#fff" stroke-width="13" d="m642.02377,483.58308l4.64544,0l1.43546,5.10997l1.43548,-5.10997l4.64543,0l-3.75822,-3.15809l1.43555,-5.10997l-3.75823,3.15819l-3.75822,-3.15819l1.43555,5.10997l-3.75823,3.15809l-0.00001,0z" id="svg_25" stroke="#000"/>
   <path fill="#fff" stroke-width="13" d="m723.50817,150.34837l4.64544,0l1.43546,5.10997l1.43548,-5.10997l4.64543,0l-3.75822,-3.15809l1.43555,-5.10997l-3.75823,3.15819l-3.75822,-3.15819l1.43555,5.10997l-3.75823,3.15809l-0.00001,0z" id="svg_21" stroke="#000"/>
   <path fill="#fff" stroke-width="13" d="m364.73357,166.15877l4.64543,0l1.43547,5.10997l1.43547,-5.10997l4.64543,0l-3.75822,-3.1581l1.43555,-5.10997l-3.75822,3.15818l-3.75822,-3.15818l1.43555,5.10997l-3.75822,3.1581l-0.00002,0z" id="svg_18" stroke="#000"/>
  </g>
 </g>

</svg>