<svg width="800" height="600" xmlns="http://www.w3.org/2000/svg">

 <g>
  <title>Layer 1</title>
  <path transform="rotate(73 526.529 198.429)" id="svg_7" d="m534.84009,303.62527c-2.86506,0.27715 -5.79427,0.46875 -8.80692,0.46875l0,0c-2.69476,0 -5.31245,-0.15165 -7.86597,-0.3765l0,0l-22.11026,29.21106l-5.43757,-1.58453c-6.38197,-1.84214 -12.58094,-4.15324 -18.54206,-6.9264l0,0l-5.16778,-2.40342l1.32967,-36.692c-4.69898,-3.38084 -9.08304,-7.14444 -13.14305,-11.271l0,0l-34.95769,7.71883l-3.19258,-4.8205c-3.74503,-5.65846 -6.93759,-11.588 -9.76711,-17.58305l0,0l-2.45712,-5.23631l23.73559,-27.00555c-1.48397,-5.71819 -2.46672,-11.62123 -2.97419,-17.63609l0,0l-31.45364,-17.09464l0.57167,-5.79096c0.67459,-6.92652 1.97849,-13.5556 3.53625,-19.9273l0,0l1.39082,-5.65229l35.08297,-4.99168c2.50195,-5.42756 5.44737,-10.57113 8.76511,-15.40455l0,0l-13.38693,-33.87912l4.04055,-4.06738c4.75018,-4.75409 9.83465,-9.06564 15.14049,-13.00767l0,0l4.5962,-3.40683l30.28451,19.55082c5.10375,-2.41651 10.44175,-4.404 15.97252,-5.92939l0,0l10.97814,-35.01485l5.65928,-0.44226c3.0481,-0.23103 6.32421,-0.50186 9.88606,-0.50186l0,0c3.55228,0 6.81862,0.27083 9.86686,0.50186l0,0l5.65913,0.44226l11.09692,35.37827c5.31883,1.525 10.47391,3.47296 15.41376,5.83694l0,0l30.7085,-19.8287l4.61219,3.4072c5.30598,3.93542 10.39982,8.26013 15.14071,12.99448l0,0l4.05643,4.06738l-13.79807,34.88294c3.00635,4.48981 5.71704,9.244 8.03287,14.24235l0,0l36.17828,5.15012l1.40674,5.65193c1.58025,6.36538 2.8779,12.99445 3.53615,19.93418l0,0l0.57185,5.79059l-32.55219,17.68881c-0.48811,5.48728 -1.35533,10.88845 -2.64975,16.15074l0,0l24.52568,27.85109l-2.46662,5.2556c-2.81999,6.01534 -5.99661,11.96445 -9.75767,17.60325l0,0l-3.19255,4.80671l-35.82487,-7.89005c-3.79644,3.9021 -7.90752,7.49415 -12.30147,10.73618l0,0l1.36499,37.41171l-5.18067,2.4101c-5.96767,2.75998 -12.15689,5.0776 -18.53865,6.91982l0,0l-5.45708,1.58465l-22.15842,-29.28373l0,0l0.00001,0.00001zm28.43123,9.36965c1.91116,-0.65389 3.79004,-1.36056 5.64955,-2.11329l0,0l-1.27827,-35.33168l4.03094,-2.66115c6.03819,-4.02747 11.53684,-8.861 16.41892,-14.34772l0,0l3.25036,-3.65783l33.89793,7.46092c1.01817,-1.74985 2.00411,-3.53915 2.95476,-5.36793l0,0l-23.18624,-26.35201l1.4389,-4.70801c2.04584,-6.78109 3.20859,-14.05098 3.5522,-21.63717l0,0l0.21199,-4.93927l30.79833,-16.73138c-0.32112,-2.02719 -0.69033,-4.04098 -1.1112,-6.0617l0,0l-34.2672,-4.8725l-1.84342,-4.55617c-2.75587,-6.81439 -6.40136,-13.19257 -10.7534,-19.07563l0,0l-2.87785,-3.92214l13.03368,-32.95468c-1.5096,-1.3605 -3.05773,-2.68084 -4.64755,-3.96177l0,0l-29.09283,18.77195l-4.28469,-2.32453c-6.34648,-3.43345 -13.21031,-6.0416 -20.44986,-7.73177l0,0l-4.68281,-1.10257l-10.50589,-33.48973c-1.02149,-0.05264 -2.0139,-0.07931 -2.98065,-0.07931l0,0c-0.98613,0 -1.97851,0.02667 -3.00638,0.07931l0,0l-10.43192,33.27194l-4.75039,1.04326c-7.36485,1.62403 -14.38905,4.27194 -20.93157,7.7516l0,0l-4.27508,2.28447l-28.62076,-18.47461c-1.5802,1.28093 -3.1316,2.60126 -4.6282,3.96177l0,0l12.68664,32.0898l-2.98044,3.92843c-4.64758,6.13404 -8.5115,12.85592 -11.40861,20.07279l0,0l-1.8339,4.57579l-33.1656,4.71431c-0.42071,2.02071 -0.7932,4.03451 -1.10475,6.0617l0,0l29.73209,16.15709l0.183,4.97829c0.31147,8.03603 1.61878,15.74814 3.86699,22.95845l0,0l1.47119,4.74062l-22.45419,25.5334c0.94438,1.83544 1.92714,3.62472 2.95505,5.37446l0,0l32.97267,-7.29611l3.2826,3.65795c5.05862,5.69197 10.83672,10.63734 17.20268,14.74451l0,0l4.10801,2.63418l-1.25589,34.79041c1.86288,0.75274 3.74821,1.45941 5.65924,2.11329l0,0l20.87067,-27.58678l4.76631,0.60057c3.59729,0.46889 7.09817,0.77264 10.5831,0.77264l0,0c3.74818,0 7.52844,-0.33661 11.39238,-0.89791l0,0l4.80822,-0.69309l21.03113,27.80458l0,0l0.00001,0.00001zm9.51348,-71.641l4.59926,7.26282l-29.1571,19.49853l-10.34847,-16.36882l0,0c-3.76442,0.94412 -7.72139,1.49919 -11.83891,1.49919l0,0c-28.49236,0 -51.57909,-23.73738 -51.57909,-52.99462l0,0c0,-29.28347 23.08673,-53.0143 51.57909,-53.0143l0,0c28.46021,0 51.55316,23.73082 51.55316,53.0143l0,0c0,12.02359 -3.93114,23.16262 -10.52179,32.05686l0,0l5.71384,9.04605m-19.61487,2.79273l0.90895,-0.59402l-8.31223,-13.14616l4.81771,-4.95231c6.29859,-6.49055 10.16237,-15.34492 10.16237,-25.20314l0,0c-0.03537,-19.70933 -15.56139,-35.66875 -34.71356,-35.70815l0,0c-19.19727,0.03941 -34.70722,15.97889 -34.73936,35.70815l0,0c0.03213,19.6897 15.55814,35.64873 34.73936,35.68852l0,0c4.28445,0 8.4086,-0.9047 12.40088,-2.47613l0,0l6.36585,-2.5091l8.37002,13.19235l0,0z" stroke-width="12" stroke="#000" fill="#fff"/>
  <path id="svg_11" d="m105.58999,518.22069l300.99986,-250l18.00016,23l-298.00016,252l-20.99986,-25z" stroke-width="12" stroke="#000" fill="#fff"/>
  <path id="svg_23" d="m296.515,76.85059l19.86238,0l6.13763,-19.09835l6.13763,19.09835l19.86237,0l-16.06897,11.8033l6.13795,19.09835l-16.06898,-11.80362l-16.06898,11.80362l6.13795,-19.09835l-16.06898,-11.8033z" stroke-width="12" stroke="#000" fill="#fff"/>
  <path id="svg_12" d="m608.515,21.85059l19.86238,0l6.13763,-19.09835l6.13763,19.09835l19.86237,0l-16.06897,11.8033l6.13795,19.09835l-16.06898,-11.80362l-16.06898,11.80362l6.13795,-19.09835l-16.06898,-11.8033z" stroke-width="12" stroke="#000" fill="#fff"/>
  <path id="svg_19" d="m696.51498,106.94519l13.36889,0l4.13108,-12.22294l4.13109,12.22294l13.36888,0l-10.81563,7.55411l4.1313,12.22295l-10.81564,-7.55432l-10.81563,7.55432l4.1313,-12.22295l-10.81564,-7.55411z" stroke-width="12" stroke="#000" fill="#fff"/>
  <path id="svg_15" d="m556.51498,370.94519l13.36888,0l4.13109,-12.22295l4.13109,12.22295l13.36888,0l-10.81563,7.55411l4.1313,12.22295l-10.81564,-7.55431l-10.81564,7.55431l4.1313,-12.22295l-10.81564,-7.55411z" stroke-width="12" stroke="#000" fill="#fff"/>
  <path id="svg_24" d="m484.56999,412.55699l14.51481,0l4.48519,-14.51474l4.48519,14.51474l14.51481,0l-11.7427,8.9705l4.48542,14.51473l-11.74272,-8.97074l-11.74271,8.97074l4.48542,-14.51473l-11.74271,-8.9705z" stroke-width="5" stroke="#000" fill="#fff"/>
  <path id="svg_17" d="m713.56999,201.55699l14.51481,0l4.48519,-14.51474l4.48519,14.51474l14.51481,0l-11.74271,8.9705l4.48542,14.51474l-11.74271,-8.97074l-11.74271,8.97074l4.48542,-14.51474l-11.74271,-8.9705z" stroke-width="5" stroke="#000" fill="#fff"/>
  <path stroke="#000" id="svg_25" d="m691.67,309.27058l3.81968,0l1.1803,4.20164l1.18031,-4.20164l3.81967,0l-3.09017,-2.59672l1.18037,-4.20164l-3.09018,2.5968l-3.09017,-2.5968l1.18037,4.20164l-3.09018,2.59672z" stroke-width="13" fill="#fff"/>
  <path stroke="#000" id="svg_21" d="m758.67,35.27058l3.81968,0l1.1803,4.20164l1.18031,-4.20164l3.81967,0l-3.09017,-2.59672l1.18037,-4.20164l-3.09018,2.5968l-3.09017,-2.5968l1.18037,4.20164l-3.09018,2.59672z" stroke-width="13" fill="#fff"/>
  <path stroke="#000" id="svg_18" d="m463.67,48.27058l3.81967,0l1.18031,4.20163l1.18031,-4.20163l3.81967,0l-3.09017,-2.59672l1.18037,-4.20163l-3.09017,2.59679l-3.09017,-2.59679l1.18037,4.20163l-3.09017,2.59672z" stroke-width="13" fill="#fff"/>
 </g>
</svg>